<?xml version="1.0" encoding="utf-8"?>
<!-- Generator: Adobe Illustrator 19.2.0, SVG Export Plug-In . SVG Version: 6.00 Build 0)  -->
<svg version="1.1" id="Capa_1" xmlns="http://www.w3.org/2000/svg" xmlns:xlink="http://www.w3.org/1999/xlink" x="0px" y="0px"
	 viewBox="0 0 44.6 45.7" style="enable-background:new 0 0 44.6 45.7;" xml:space="preserve">
<style type="text/css">
	.st0{clip-path:url(#SVGID_1_);}
	.st1{clip-path:url(#SVGID_2_);fill-rule:evenodd;clip-rule:evenodd;fill:#57636D;}
	.st2{clip-path:url(#SVGID_3_);fill:#57636D;}
	.st3{clip-path:url(#SVGID_4_);}
	.st4{fill:#57636D;}
	.st5{clip-path:url(#SVGID_5_);}
</style>
<g>
	<defs>
		<path id="SVGID_11_" d="M3.7,4.3h12.8v5.1h0.2c2.5-3.8,7.8-6.2,12.7-6.2c13.4,0,14.5,9,14.5,14.4v23.9H30.7v-18v-3.7
			c0-3.6-1.3-6.5-6.6-6.5c-5,0-7.1,3.9-7.1,8v20.3H3.7V4.3z"/>
	</defs>
	<clipPath id="SVGID_1_">
		<use xlink:href="#SVGID_11_"  style="overflow:visible;"/>
	</clipPath>
	<g class="st0">
		<g>
			<defs>
				<polygon id="SVGID_13_" points="16.8,22.1 16.8,3.2 44.6,3.3 44.6,22.1 				"/>
			</defs>
			<clipPath id="SVGID_2_">
				<use xlink:href="#SVGID_13_"  style="overflow:visible;"/>
			</clipPath>
			<rect x="16.8" y="3.5" class="st1" width="27.2" height="1.1"/>
			<rect x="16.8" y="5.7" class="st1" width="27.2" height="1.1"/>
			<rect x="16.8" y="7.9" class="st1" width="27.2" height="1.1"/>
			<rect x="16.8" y="10.1" class="st1" width="27.2" height="1.1"/>
			<rect x="16.8" y="12.3" class="st1" width="27.2" height="1.1"/>
			<rect x="16.8" y="14.5" class="st1" width="27.2" height="1.1"/>
			<rect x="16.8" y="16.7" class="st1" width="27.2" height="1.1"/>
			<rect x="16.8" y="18.9" class="st1" width="27.2" height="1.1"/>
			<rect x="16.8" y="21.1" class="st1" width="27.2" height="1.1"/>
		</g>
		<g>
			<defs>
				<rect id="SVGID_15_" x="3.7" y="3.3" width="13.1" height="25.5"/>
			</defs>
			<clipPath id="SVGID_3_">
				<use xlink:href="#SVGID_15_"  style="overflow:visible;"/>
			</clipPath>
			<path class="st2" d="M19.4,32.5l-6.2-5.7L7,32.4c-0.3,0.2-0.7,0.2-1,0l-6-5.5L1,26l5.5,5l6.2-5.5c0.3-0.2,0.7-0.2,1,0l6.7,6.2
				L19.4,32.5z"/>
			<path class="st2" d="M6.6,28.5c-0.2,0-0.4-0.1-0.5-0.2l-3.9-3.6l1-0.9l3.4,3.1l3.4-3.1l1,0.9l-3.9,3.6
				C6.9,28.4,6.8,28.5,6.6,28.5z"/>
			<path class="st2" d="M16.6,25.7l-3.4-3.1l-3.4,3.1l-1-0.9l3.9-3.6c0.3-0.2,0.7-0.2,1,0l3.9,3.6L16.6,25.7z"/>
			<path class="st2" d="M19.4,24.1l-6.2-5.7L7,23.9c-0.3,0.2-0.7,0.2-1,0l-6-5.5l1-0.9l5.5,5l6.2-5.5c0.3-0.2,0.7-0.2,1,0l6.7,6.2
				L19.4,24.1z"/>
			<path class="st2" d="M6.6,20c-0.2,0-0.4-0.1-0.5-0.2l-3.9-3.6l1-0.9l3.4,3.1l3.4-3.1l1,0.9l-3.9,3.6C6.9,20,6.8,20,6.6,20z"/>
			<path class="st2" d="M16.6,17.2l-3.4-3.1l-3.4,3.1l-1-0.9l3.9-3.6c0.3-0.2,0.7-0.2,1,0l3.9,3.6L16.6,17.2z"/>
			<path class="st2" d="M19.4,15.7L13.2,10L7,15.5c-0.3,0.2-0.7,0.2-1,0L0,10l1-0.9l5.5,5l6.2-5.5c0.3-0.2,0.7-0.2,1,0l6.7,6.2
				L19.4,15.7z"/>
			<path class="st2" d="M6.6,11.6c-0.2,0-0.4-0.1-0.5-0.2L2.2,7.9l1-0.9L6.6,10l3.4-3.1l1,0.9l-3.9,3.6C6.9,11.5,6.8,11.6,6.6,11.6z
				"/>
			<path class="st2" d="M16.6,8.8l-3.4-3.1L9.9,8.8l-1-0.9l3.9-3.6c0.3-0.2,0.7-0.2,1,0l3.9,3.6L16.6,8.8z"/>
			<path class="st2" d="M19.4,7.3l-6.2-5.7L7,7.1c-0.3,0.2-0.7,0.2-1,0L0,1.6l1-0.9l5.5,5l6.2-5.5c0.3-0.2,0.7-0.2,1,0l6.7,6.2
				L19.4,7.3z"/>
		</g>
		<g>
			<defs>
				<rect id="SVGID_17_" x="30.7" y="21.8" width="13.1" height="19.8"/>
			</defs>
			<clipPath id="SVGID_4_">
				<use xlink:href="#SVGID_17_"  style="overflow:visible;"/>
			</clipPath>
			<g class="st3">
				<path class="st4" d="M29.9,24.6l3.5-3.2l-3.5-3.2l1-1l4,3.7c0.3,0.3,0.3,0.7,0,1l-4,3.7L29.9,24.6z"/>
			</g>
			<g class="st3">
				<path class="st4" d="M36.8,23.2l-3.5,3.2l3.5,3.2l-1,1l-4-3.7c-0.3-0.3-0.3-0.7,0-1l4-3.7L36.8,23.2z"/>
				<path class="st4" d="M37.8,29.7l3.5-3.2l-3.5-3.2l1-1l4,3.7c0.3,0.3,0.3,0.7,0,1l-4,3.7L37.8,29.7z"/>
			</g>
			<g class="st3">
				<path class="st4" d="M29.9,34.7l3.5-3.2l-3.5-3.2l1-1l4,3.7c0.3,0.3,0.3,0.7,0,1l-4,3.7L29.9,34.7z"/>
			</g>
			<g class="st3">
				<path class="st4" d="M36.8,33.3l-3.5,3.2l3.5,3.2l-1,1l-4-3.7c-0.3-0.3-0.3-0.7,0-1l4-3.7L36.8,33.3z"/>
				<path class="st4" d="M37.8,39.8l3.5-3.2l-3.5-3.2l1-1l4,3.7c0.3,0.3,0.3,0.7,0,1l-4,3.7L37.8,39.8z"/>
			</g>
			<g class="st3">
				<path class="st4" d="M29.9,44.8l3.5-3.2l-3.5-3.2l1-1l4,3.7c0.3,0.3,0.3,0.7,0,1l-4,3.7L29.9,44.8z"/>
			</g>
			<g class="st3">
				<path class="st4" d="M44.6,38.3l-3.5,3.2l3.5,3.2l-1,1l-4-3.7c-0.3-0.3-0.3-0.7,0-1l4-3.7L44.6,38.3z"/>
			</g>
			<g class="st3">
				<path class="st4" d="M44.6,28.2l-3.5,3.2l3.5,3.2l-1,1l-4-3.7c-0.3-0.3-0.3-0.7,0-1l4-3.7L44.6,28.2z"/>
			</g>
			<g class="st3">
				<path class="st4" d="M44.6,18.2l-3.5,3.2l3.5,3.2l-1,1l-4-3.7c-0.3-0.3-0.3-0.7,0-1l4-3.7L44.6,18.2z"/>
			</g>
		</g>
		<g>
			<defs>
				<rect id="SVGID_19_" x="3.7" y="28.8" width="13.1" height="12.7"/>
			</defs>
			<clipPath id="SVGID_5_">
				<use xlink:href="#SVGID_19_"  style="overflow:visible;"/>
			</clipPath>
			<g class="st5">
				<g>
					<path class="st4" d="M6.9,29.5c1.5,0,2.6,1.1,2.6,2.4c0,1.3-1.2,2.4-2.6,2.4c-1.4,0-2.6-1.1-2.6-2.4
						C4.2,30.6,5.4,29.5,6.9,29.5 M6.9,28.8c-1.9,0-3.4,1.4-3.4,3.2c0,1.7,1.5,3.2,3.4,3.2c1.9,0,3.4-1.4,3.4-3.2
						C10.3,30.2,8.8,28.8,6.9,28.8L6.9,28.8z"/>
					<path class="st4" d="M6.9,31c0.6,0,1.1,0.5,1.1,1c0,0.6-0.5,1-1.1,1c-0.6,0-1.1-0.5-1.1-1C5.8,31.4,6.3,31,6.9,31 M6.9,30.2
						C5.8,30.2,5,31,5,32c0,1,0.9,1.8,1.9,1.8c1,0,1.9-0.8,1.9-1.8C8.8,31,7.9,30.2,6.9,30.2L6.9,30.2z"/>
				</g>
				<g>
					<path class="st4" d="M6.9,35.9c1.5,0,2.6,1.1,2.6,2.4c0,1.3-1.2,2.4-2.6,2.4c-1.4,0-2.6-1.1-2.6-2.4C4.2,37,5.4,35.9,6.9,35.9
						 M6.9,35.1c-1.9,0-3.4,1.4-3.4,3.2c0,1.7,1.5,3.2,3.4,3.2c1.9,0,3.4-1.4,3.4-3.2C10.3,36.6,8.8,35.1,6.9,35.1L6.9,35.1z"/>
					<path class="st4" d="M6.9,37.3c0.6,0,1.1,0.4,1.1,1c0,0.6-0.5,1-1.1,1c-0.6,0-1.1-0.5-1.1-1C5.8,37.8,6.3,37.3,6.9,37.3
						 M6.9,36.6c-1,0-1.9,0.8-1.9,1.8c0,1,0.9,1.8,1.9,1.8c1,0,1.9-0.8,1.9-1.8C8.8,37.3,7.9,36.6,6.9,36.6L6.9,36.6z"/>
				</g>
				<g>
					<path class="st4" d="M13.7,29.5c1.4,0,2.6,1.1,2.6,2.4c0,1.3-1.2,2.4-2.6,2.4c-1.5,0-2.6-1.1-2.6-2.4
						C11.1,30.6,12.3,29.5,13.7,29.5 M13.7,28.8c-1.9,0-3.4,1.4-3.4,3.2c0,1.7,1.5,3.2,3.4,3.2c1.9,0,3.4-1.4,3.4-3.2
						C17.2,30.2,15.6,28.8,13.7,28.8L13.7,28.8z"/>
					<path class="st4" d="M13.7,31c0.6,0,1.1,0.5,1.1,1c0,0.6-0.5,1-1.1,1c-0.6,0-1.1-0.5-1.1-1C12.6,31.4,13.1,31,13.7,31
						 M13.7,30.2c-1,0-1.9,0.8-1.9,1.8c0,1,0.8,1.8,1.9,1.8c1,0,1.9-0.8,1.9-1.8C15.6,31,14.8,30.2,13.7,30.2L13.7,30.2z"/>
				</g>
				<g>
					<path class="st4" d="M13.7,35.9c1.4,0,2.6,1.1,2.6,2.4c0,1.3-1.2,2.4-2.6,2.4c-1.5,0-2.6-1.1-2.6-2.4
						C11.1,37,12.3,35.9,13.7,35.9 M13.7,35.1c-1.9,0-3.4,1.4-3.4,3.2c0,1.7,1.5,3.2,3.4,3.2c1.9,0,3.4-1.4,3.4-3.2
						C17.2,36.6,15.6,35.1,13.7,35.1L13.7,35.1z"/>
					<path class="st4" d="M13.7,37.3c0.6,0,1.1,0.4,1.1,1c0,0.6-0.5,1-1.1,1c-0.6,0-1.1-0.5-1.1-1C12.6,37.8,13.1,37.3,13.7,37.3
						 M13.7,36.6c-1,0-1.9,0.8-1.9,1.8c0,1,0.8,1.8,1.9,1.8c1,0,1.9-0.8,1.9-1.8C15.6,37.3,14.8,36.6,13.7,36.6L13.7,36.6z"/>
				</g>
			</g>
		</g>
	</g>
</g>
</svg>
