<?xml version="1.0" encoding="utf-8"?>
<!-- Generator: Adobe Illustrator 19.2.0, SVG Export Plug-In . SVG Version: 6.00 Build 0)  -->
<svg version="1.1" id="Capa_1" xmlns="http://www.w3.org/2000/svg" xmlns:xlink="http://www.w3.org/1999/xlink" x="0px" y="0px"
	 viewBox="0 0 271 93.8" style="enable-background:new 0 0 271 93.8;" xml:space="preserve">
<style type="text/css">
	.st0{fill:#57636D;}
	.st1{clip-path:url(#SVGID_1_);}
	.st2{clip-path:url(#SVGID_2_);fill-rule:evenodd;clip-rule:evenodd;fill:#57636D;}
	.st3{clip-path:url(#SVGID_3_);fill:#57636D;}
	.st4{clip-path:url(#SVGID_4_);}
	.st5{clip-path:url(#SVGID_5_);}
	.st6{fill:#1E93A2;}
	.st7{fill:#1C859D;}
	.st8{fill:#026273;}
	.st9{fill:#003B42;}
	.st10{fill:#D79728;}
	.st11{fill:#D16728;}
	.st12{fill:#D14228;}
	.st13{fill:#9D1E23;}
	.st14{fill:#580A0D;}
</style>
<g>
	<g>
		<path class="st0" d="M0,0h4.9v7.2H0V0z M0,14.2h4.9v37H0V14.2z"/>
		<path class="st0" d="M13.8,14.1H20v5.5h0.2c3-4.2,7.3-6.3,13-6.3c5,0,9.4,1.7,11,6.3c2.7-4,7.4-6.3,12.6-6.3
			c8,0,13.4,3.1,13.4,10.8v27.2h-6.6V26.9c0-4.6-1.3-8.2-7.8-8.2c-6.4,0-10.5,3.7-10.5,9.5v23.1h-6.6V26.9c0-4.8-1.6-8.2-7.5-8.2
			c-7.8,0-10.7,6.6-10.7,9.5v23.1h-6.6V14.1z"/>
		<path class="st0" d="M85.9,34.8c0,5.8,3.4,11,10.8,11c5.2,0,8.2-2.1,9.8-6.2h8.4c-1.9,8.1-9.5,12.6-18.2,12.6
			C84,52.2,77,44.2,77,32.7c0-10.5,7.5-19.6,19.4-19.6c12.7,0,20.4,10.5,18.9,21.7H85.9z M106.5,29.4c-0.4-5.2-4-9.8-10.1-9.8
			c-6.1,0-10.3,4.3-10.6,9.8H106.5z"/>
		<path class="st0" d="M121.6,14.1h8.4v5h0.2c2.5-4.3,7.2-6,12.4-6c12.7,0,18.8,8.8,18.8,19.7c0,10-5.5,19.4-17.3,19.4
			c-5.1,0-10.7-1.7-13.4-5.8h-0.2v16.5h-8.9V14.1z M141.4,19.6c-7.5,0-11.3,5.2-11.3,13.1c0,7.5,4.1,13.1,11.3,13.1
			c8.1,0,11.1-6.6,11.1-13.1C152.5,26,148.7,19.6,141.4,19.6z"/>
		<path class="st0" d="M167.9,0h11v51.2h-11V0z"/>
		<path class="st0" d="M186.4,25.5c0.6-9.5,9.9-12.4,18.9-12.4c8,0,17.6,1.7,17.6,10.5V43c0,3.4,0.4,6.7,1.4,8.2h-11.2
			c-0.4-1.1-0.7-2.4-0.8-3.6c-3.5,3.4-8.5,4.6-13.5,4.6c-7.7,0-13.7-3.5-13.7-11.1c0.2-16.9,27.2-7.8,26.7-16.1c0-4.3-3.3-5-7.1-5
			c-4.3,0-6.9,1.6-7.3,5.6H186.4z M211.8,33.1c-1.9,1.5-5.7,1.6-9.2,2.1c-3.4,0.6-6.5,1.7-6.5,5.5c0,3.7,3.2,4.7,6.8,4.7
			c8.6,0,8.9-6.2,8.9-8.5V33.1z"/>
		<g>
			<defs>
				<path id="SVGID_11_" d="M230.8,14h12.8v5.1h0.2c2.5-3.8,7.8-6.2,12.7-6.2c13.4,0,14.5,9,14.5,14.4v23.9h-13.2v-18v-3.7
					c0-3.6-1.3-6.5-6.6-6.5c-5,0-7.1,3.9-7.1,8v20.3h-13.2V14z"/>
			</defs>
			<clipPath id="SVGID_1_">
				<use xlink:href="#SVGID_11_"  style="overflow:visible;"/>
			</clipPath>
			<g class="st1">
				<g>
					<defs>
						<polygon id="SVGID_13_" points="244,31.7 244,12.9 271.7,12.9 271.7,31.8 						"/>
					</defs>
					<clipPath id="SVGID_2_">
						<use xlink:href="#SVGID_13_"  style="overflow:visible;"/>
					</clipPath>
					<rect x="243.9" y="13.2" class="st2" width="27.2" height="1.1"/>
					<rect x="243.9" y="15.4" class="st2" width="27.2" height="1.1"/>
					<rect x="243.9" y="17.6" class="st2" width="27.2" height="1.1"/>
					<rect x="243.9" y="19.8" class="st2" width="27.2" height="1.1"/>
					<rect x="243.9" y="22" class="st2" width="27.2" height="1.1"/>
					<rect x="243.9" y="24.1" class="st2" width="27.2" height="1.1"/>
					<rect x="243.9" y="26.3" class="st2" width="27.2" height="1.1"/>
					<rect x="243.9" y="28.5" class="st2" width="27.2" height="1.1"/>
					<rect x="243.9" y="30.7" class="st2" width="27.2" height="1.1"/>
				</g>
				<g>
					<defs>
						<rect id="SVGID_15_" x="230.8" y="12.9" width="13.1" height="25.5"/>
					</defs>
					<clipPath id="SVGID_3_">
						<use xlink:href="#SVGID_15_"  style="overflow:visible;"/>
					</clipPath>
					<path class="st3" d="M246.5,42.2l-6.2-5.7l-6.2,5.5c-0.3,0.2-0.7,0.2-1,0l-6-5.5l1-0.9l5.5,5l6.2-5.5c0.3-0.2,0.7-0.2,1,0
						l6.7,6.2L246.5,42.2z"/>
					<path class="st3" d="M233.7,38.1c-0.2,0-0.4-0.1-0.5-0.2l-3.9-3.6l1-0.9l3.4,3.1l3.4-3.1l1,0.9l-3.9,3.6
						C234.1,38.1,233.9,38.1,233.7,38.1z"/>
					<path class="st3" d="M243.7,35.3l-3.4-3.1l-3.4,3.1l-1-0.9l3.9-3.6c0.3-0.2,0.7-0.2,1,0l3.9,3.6L243.7,35.3z"/>
					<path class="st3" d="M246.5,33.8l-6.2-5.7l-6.2,5.5c-0.3,0.2-0.7,0.2-1,0l-6-5.5l1-0.9l5.5,5l6.2-5.5c0.3-0.2,0.7-0.2,1,0
						l6.7,6.2L246.5,33.8z"/>
					<path class="st3" d="M233.7,29.7c-0.2,0-0.4-0.1-0.5-0.2l-3.9-3.6l1-0.9l3.4,3.1L237,25l1,0.9l-3.9,3.6
						C234.1,29.6,233.9,29.7,233.7,29.7z"/>
					<path class="st3" d="M243.7,26.9l-3.4-3.1l-3.4,3.1l-1-0.9l3.9-3.6c0.3-0.2,0.7-0.2,1,0l3.9,3.6L243.7,26.9z"/>
					<path class="st3" d="M246.5,25.3l-6.2-5.7l-6.2,5.5c-0.3,0.2-0.7,0.2-1,0l-6-5.5l1-0.9l5.5,5l6.2-5.5c0.3-0.2,0.7-0.2,1,0
						l6.7,6.2L246.5,25.3z"/>
					<path class="st3" d="M233.7,21.3c-0.2,0-0.4-0.1-0.5-0.2l-3.9-3.6l1-0.9l3.4,3.1l3.4-3.1l1,0.9l-3.9,3.6
						C234.1,21.2,233.9,21.3,233.7,21.3z"/>
					<path class="st3" d="M243.7,18.5l-3.4-3.1l-3.4,3.1l-1-0.9l3.9-3.6c0.3-0.2,0.7-0.2,1,0l3.9,3.6L243.7,18.5z"/>
					<path class="st3" d="M246.5,16.9l-6.2-5.7l-6.2,5.5c-0.3,0.2-0.7,0.2-1,0l-6-5.5l1-0.9l5.5,5l6.2-5.5c0.3-0.2,0.7-0.2,1,0
						l6.7,6.2L246.5,16.9z"/>
				</g>
				<g>
					<defs>
						<rect id="SVGID_17_" x="257.8" y="31.4" width="13.1" height="19.8"/>
					</defs>
					<clipPath id="SVGID_4_">
						<use xlink:href="#SVGID_17_"  style="overflow:visible;"/>
					</clipPath>
					<g class="st4">
						<path class="st0" d="M257,34.3l3.5-3.2l-3.5-3.2l1-1l4,3.7c0.3,0.3,0.3,0.7,0,1l-4,3.7L257,34.3z"/>
					</g>
					<g class="st4">
						<path class="st0" d="M263.9,32.9l-3.5,3.2l3.5,3.2l-1,1l-4-3.7c-0.3-0.3-0.3-0.7,0-1l4-3.7L263.9,32.9z"/>
						<path class="st0" d="M264.9,39.4l3.5-3.2l-3.5-3.2l1-1l4,3.7c0.3,0.3,0.3,0.7,0,1l-4,3.7L264.9,39.4z"/>
					</g>
					<g class="st4">
						<path class="st0" d="M257,44.3l3.5-3.2l-3.5-3.2l1-1l4,3.7c0.3,0.3,0.3,0.7,0,1l-4,3.7L257,44.3z"/>
					</g>
					<g class="st4">
						<path class="st0" d="M263.9,42.9l-3.5,3.2l3.5,3.2l-1,1l-4-3.7c-0.3-0.3-0.3-0.7,0-1l4-3.7L263.9,42.9z"/>
						<path class="st0" d="M264.9,49.4l3.5-3.2l-3.5-3.2l1-1l4,3.7c0.3,0.3,0.3,0.7,0,1l-4,3.7L264.9,49.4z"/>
					</g>
					<g class="st4">
						<path class="st0" d="M257,54.4l3.5-3.2l-3.5-3.2l1-1l4,3.7c0.3,0.3,0.3,0.7,0,1l-4,3.7L257,54.4z"/>
					</g>
					<g class="st4">
						<path class="st0" d="M271.7,47.9l-3.5,3.2l3.5,3.2l-1,1l-4-3.7c-0.3-0.3-0.3-0.7,0-1l4-3.7L271.7,47.9z"/>
					</g>
					<g class="st4">
						<path class="st0" d="M271.7,37.9l-3.5,3.2l3.5,3.2l-1,1l-4-3.7c-0.3-0.3-0.3-0.7,0-1l4-3.7L271.7,37.9z"/>
					</g>
					<g class="st4">
						<path class="st0" d="M271.7,27.8l-3.5,3.2l3.5,3.2l-1,1l-4-3.7c-0.3-0.3-0.3-0.7,0-1l4-3.7L271.7,27.8z"/>
					</g>
				</g>
				<g>
					<defs>
						<rect id="SVGID_19_" x="230.8" y="38.4" width="13.1" height="12.7"/>
					</defs>
					<clipPath id="SVGID_5_">
						<use xlink:href="#SVGID_19_"  style="overflow:visible;"/>
					</clipPath>
					<g class="st5">
						<g>
							<path class="st0" d="M234,39.2c1.5,0,2.6,1.1,2.6,2.4c0,1.3-1.2,2.4-2.6,2.4c-1.4,0-2.6-1.1-2.6-2.4
								C231.3,40.3,232.5,39.2,234,39.2 M234,38.4c-1.9,0-3.4,1.4-3.4,3.2c0,1.7,1.5,3.2,3.4,3.2c1.9,0,3.4-1.4,3.4-3.2
								C237.4,39.9,235.9,38.4,234,38.4L234,38.4z"/>
							<path class="st0" d="M234,40.6c0.6,0,1.1,0.5,1.1,1c0,0.6-0.5,1-1.1,1c-0.6,0-1.1-0.5-1.1-1C232.9,41.1,233.4,40.6,234,40.6
								 M234,39.9c-1,0-1.9,0.8-1.9,1.8c0,1,0.9,1.8,1.9,1.8c1,0,1.9-0.8,1.9-1.8C235.9,40.7,235,39.9,234,39.9L234,39.9z"/>
						</g>
						<g>
							<path class="st0" d="M234,45.5c1.5,0,2.6,1.1,2.6,2.4c0,1.3-1.2,2.4-2.6,2.4c-1.4,0-2.6-1.1-2.6-2.4
								C231.3,46.6,232.5,45.5,234,45.5 M234,44.8c-1.9,0-3.4,1.4-3.4,3.2s1.5,3.2,3.4,3.2c1.9,0,3.4-1.4,3.4-3.2
								S235.9,44.8,234,44.8L234,44.8z"/>
							<path class="st0" d="M234,47c0.6,0,1.1,0.4,1.1,1c0,0.6-0.5,1-1.1,1c-0.6,0-1.1-0.5-1.1-1C232.9,47.4,233.4,47,234,47
								 M234,46.2c-1,0-1.9,0.8-1.9,1.8c0,1,0.9,1.8,1.9,1.8c1,0,1.9-0.8,1.9-1.8C235.9,47,235,46.2,234,46.2L234,46.2z"/>
						</g>
						<g>
							<path class="st0" d="M240.8,39.2c1.4,0,2.6,1.1,2.6,2.4c0,1.3-1.2,2.4-2.6,2.4c-1.5,0-2.6-1.1-2.6-2.4
								C238.2,40.3,239.4,39.2,240.8,39.2 M240.8,38.4c-1.9,0-3.4,1.4-3.4,3.2c0,1.7,1.5,3.2,3.4,3.2c1.9,0,3.4-1.4,3.4-3.2
								C244.3,39.9,242.7,38.4,240.8,38.4L240.8,38.4z"/>
							<path class="st0" d="M240.8,40.6c0.6,0,1.1,0.5,1.1,1c0,0.6-0.5,1-1.1,1c-0.6,0-1.1-0.5-1.1-1
								C239.7,41.1,240.2,40.6,240.8,40.6 M240.8,39.9c-1,0-1.9,0.8-1.9,1.8c0,1,0.8,1.8,1.9,1.8c1,0,1.9-0.8,1.9-1.8
								C242.7,40.7,241.9,39.9,240.8,39.9L240.8,39.9z"/>
						</g>
						<g>
							<path class="st0" d="M240.8,45.5c1.4,0,2.6,1.1,2.6,2.4c0,1.3-1.2,2.4-2.6,2.4c-1.5,0-2.6-1.1-2.6-2.4
								C238.2,46.6,239.4,45.5,240.8,45.5 M240.8,44.8c-1.9,0-3.4,1.4-3.4,3.2s1.5,3.2,3.4,3.2c1.9,0,3.4-1.4,3.4-3.2
								S242.7,44.8,240.8,44.8L240.8,44.8z"/>
							<path class="st0" d="M240.8,47c0.6,0,1.1,0.4,1.1,1c0,0.6-0.5,1-1.1,1c-0.6,0-1.1-0.5-1.1-1C239.7,47.4,240.2,47,240.8,47
								 M240.8,46.2c-1,0-1.9,0.8-1.9,1.8c0,1,0.8,1.8,1.9,1.8c1,0,1.9-0.8,1.9-1.8C242.7,47,241.9,46.2,240.8,46.2L240.8,46.2z"/>
						</g>
					</g>
				</g>
			</g>
		</g>
	</g>
	<g>
		<rect x="5.6" y="82.3" class="st6" width="28.9" height="1.9"/>
		<rect x="34.5" y="82.3" class="st7" width="28.9" height="1.9"/>
		<rect x="63.3" y="82.3" class="st8" width="28.9" height="1.9"/>
		<rect x="92.2" y="82.3" class="st9" width="28.9" height="1.9"/>
		<rect x="121.1" y="82.3" class="st10" width="28.9" height="1.9"/>
		<rect x="149.9" y="82.3" class="st11" width="28.9" height="1.9"/>
		<rect x="178.8" y="82.3" class="st12" width="28.9" height="1.9"/>
		<rect x="207.7" y="82.3" class="st13" width="28.9" height="1.9"/>
		<rect x="236.5" y="82.3" class="st14" width="28.9" height="1.9"/>
	</g>
	<g>
		<path class="st0" d="M39.6,93.4l1.7-3.4c0.1-0.1,0.1-0.2,0.3-0.2h0c0.1,0,0.2,0.1,0.3,0.2l1.7,3.4c0,0,0,0.1,0,0.1
			c0,0.1-0.1,0.2-0.2,0.2c-0.1,0-0.2-0.1-0.2-0.2l-0.4-0.9h-2.3L40,93.6c0,0.1-0.1,0.1-0.2,0.1c-0.1,0-0.2-0.1-0.2-0.2
			C39.5,93.5,39.5,93.5,39.6,93.4z M42.5,92.3l-1-2l-1,2H42.5z M41.5,89.4C41.5,89.4,41.5,89.3,41.5,89.4l0.4-0.6
			c0.1-0.1,0.1-0.1,0.2-0.1c0.1,0,0.3,0.1,0.3,0.2c0,0,0,0.1-0.1,0.1l-0.5,0.4c-0.1,0.1-0.2,0.1-0.3,0.1
			C41.5,89.5,41.5,89.4,41.5,89.4z"/>
		<path class="st0" d="M47,90.1c0-0.1,0.1-0.2,0.2-0.2h1.6c0.5,0,0.9,0.1,1.2,0.4c0.2,0.2,0.3,0.5,0.3,0.8v0c0,0.6-0.5,1-1.1,1.1
			l1,1.2c0,0.1,0.1,0.1,0.1,0.2c0,0.1-0.1,0.2-0.2,0.2c-0.1,0-0.2,0-0.2-0.1l-1.2-1.4h-1.2v1.3c0,0.1-0.1,0.2-0.2,0.2
			c-0.1,0-0.2-0.1-0.2-0.2V90.1z M48.8,91.8c0.6,0,1.1-0.3,1.1-0.8v0c0-0.5-0.4-0.8-1.1-0.8h-1.3v1.6H48.8z"/>
		<path class="st0" d="M53.9,93.5v-3.4c0-0.1,0.1-0.2,0.2-0.2h2.6c0.1,0,0.2,0.1,0.2,0.2c0,0.1-0.1,0.2-0.2,0.2h-2.4v1.3h2.1
			c0.1,0,0.2,0.1,0.2,0.2c0,0.1-0.1,0.2-0.2,0.2h-2.1v1.4h2.4c0.1,0,0.2,0.1,0.2,0.2s-0.1,0.2-0.2,0.2h-2.6
			C54,93.7,53.9,93.6,53.9,93.5z"/>
		<path class="st0" d="M60.2,93.4l1.7-3.4c0.1-0.1,0.1-0.2,0.3-0.2h0c0.1,0,0.2,0.1,0.3,0.2l1.7,3.4c0,0,0,0.1,0,0.1
			c0,0.1-0.1,0.2-0.2,0.2c-0.1,0-0.2-0.1-0.2-0.2l-0.4-0.9H61l-0.4,0.9c0,0.1-0.1,0.1-0.2,0.1c-0.1,0-0.2-0.1-0.2-0.2
			C60.1,93.5,60.1,93.5,60.2,93.4z M63.1,92.3l-1-2l-1,2H63.1z"/>
		<path class="st0" d="M72,90c0-0.1,0.1-0.2,0.2-0.2h0.1c0.1,0,0.2,0.1,0.2,0.1L74,92l1.5-2.1c0-0.1,0.1-0.1,0.2-0.1h0.1
			c0.1,0,0.2,0.1,0.2,0.2v3.5c0,0.1-0.1,0.2-0.2,0.2c-0.1,0-0.2-0.1-0.2-0.2v-2.9l-1.3,1.8c-0.1,0.1-0.1,0.1-0.2,0.1
			c-0.1,0-0.1,0-0.2-0.1l-1.3-1.8v2.9c0,0.1-0.1,0.2-0.2,0.2c-0.1,0-0.2-0.1-0.2-0.2V90z"/>
		<path class="st0" d="M79.7,93.5v-3.4c0-0.1,0.1-0.2,0.2-0.2h2.6c0.1,0,0.2,0.1,0.2,0.2c0,0.1-0.1,0.2-0.2,0.2h-2.4v1.3h2.1
			c0.1,0,0.2,0.1,0.2,0.2c0,0.1-0.1,0.2-0.2,0.2h-2.1v1.4h2.4c0.1,0,0.2,0.1,0.2,0.2s-0.1,0.2-0.2,0.2h-2.6
			C79.8,93.7,79.7,93.6,79.7,93.5z"/>
		<path class="st0" d="M87.3,90.2h-1.2c-0.1,0-0.2-0.1-0.2-0.2c0-0.1,0.1-0.2,0.2-0.2H89c0.1,0,0.2,0.1,0.2,0.2
			c0,0.1-0.1,0.2-0.2,0.2h-1.2v3.3c0,0.1-0.1,0.2-0.2,0.2s-0.2-0.1-0.2-0.2V90.2z"/>
		<path class="st0" d="M92.6,90.1c0-0.1,0.1-0.2,0.2-0.2h1.6c0.5,0,0.9,0.1,1.2,0.4c0.2,0.2,0.3,0.5,0.3,0.8v0c0,0.6-0.5,1-1.1,1.1
			l1,1.2c0,0.1,0.1,0.1,0.1,0.2c0,0.1-0.1,0.2-0.2,0.2c-0.1,0-0.2,0-0.2-0.1l-1.2-1.4h-1.2v1.3c0,0.1-0.1,0.2-0.2,0.2
			c-0.1,0-0.2-0.1-0.2-0.2V90.1z M94.4,91.8c0.6,0,1.1-0.3,1.1-0.8v0c0-0.5-0.4-0.8-1.1-0.8h-1.3v1.6H94.4z"/>
		<path class="st0" d="M99.3,91.8L99.3,91.8c0-1.1,0.9-2,2.1-2c1.3,0,2.1,0.9,2.1,2v0c0,1.1-0.9,2-2.1,2
			C100.1,93.8,99.3,92.9,99.3,91.8z M103.1,91.8L103.1,91.8c0-0.9-0.7-1.6-1.7-1.6c-1,0-1.6,0.7-1.6,1.6v0c0,0.9,0.7,1.6,1.7,1.6
			C102.4,93.4,103.1,92.7,103.1,91.8z"/>
		<path class="st0" d="M107.1,90.1c0-0.1,0.1-0.2,0.2-0.2h1.3c0.9,0,1.6,0.5,1.6,1.2v0c0,0.8-0.8,1.3-1.6,1.3h-1v1.2
			c0,0.1-0.1,0.2-0.2,0.2c-0.1,0-0.2-0.1-0.2-0.2V90.1z M108.6,91.9c0.7,0,1.2-0.3,1.2-0.9v0c0-0.6-0.5-0.8-1.1-0.8h-1.1v1.7H108.6z
			"/>
		<path class="st0" d="M113.4,91.8L113.4,91.8c0-1.1,0.9-2,2.1-2c1.3,0,2.1,0.9,2.1,2v0c0,1.1-0.9,2-2.1,2
			C114.3,93.8,113.4,92.9,113.4,91.8z M117.2,91.8L117.2,91.8c0-0.9-0.7-1.6-1.7-1.6c-1,0-1.6,0.7-1.6,1.6v0c0,0.9,0.7,1.6,1.7,1.6
			C116.5,93.4,117.2,92.7,117.2,91.8z"/>
		<path class="st0" d="M121.2,90c0-0.1,0.1-0.2,0.2-0.2c0.1,0,0.2,0.1,0.2,0.2v3.3h2.2c0.1,0,0.2,0.1,0.2,0.2s-0.1,0.2-0.2,0.2h-2.4
			c-0.1,0-0.2-0.1-0.2-0.2V90z"/>
		<path class="st0" d="M127.5,90c0-0.1,0.1-0.2,0.2-0.2c0.1,0,0.2,0.1,0.2,0.2v3.5c0,0.1-0.1,0.2-0.2,0.2c-0.1,0-0.2-0.1-0.2-0.2V90
			z"/>
		<path class="st0" d="M132.8,90.2h-1.2c-0.1,0-0.2-0.1-0.2-0.2c0-0.1,0.1-0.2,0.2-0.2h2.9c0.1,0,0.2,0.1,0.2,0.2
			c0,0.1-0.1,0.2-0.2,0.2h-1.2v3.3c0,0.1-0.1,0.2-0.2,0.2s-0.2-0.1-0.2-0.2V90.2z"/>
		<path class="st0" d="M137.3,93.4L139,90c0.1-0.1,0.1-0.2,0.3-0.2h0c0.1,0,0.2,0.1,0.3,0.2l1.7,3.4c0,0,0,0.1,0,0.1
			c0,0.1-0.1,0.2-0.2,0.2c-0.1,0-0.2-0.1-0.2-0.2l-0.4-0.9h-2.3l-0.4,0.9c0,0.1-0.1,0.1-0.2,0.1c-0.1,0-0.2-0.1-0.2-0.2
			C137.3,93.5,137.3,93.5,137.3,93.4z M140.3,92.3l-1-2l-1,2H140.3z"/>
		<path class="st0" d="M144.8,90c0-0.1,0.1-0.2,0.2-0.2h0.1c0.1,0,0.2,0.1,0.2,0.1l2.5,3V90c0-0.1,0.1-0.2,0.2-0.2
			c0.1,0,0.2,0.1,0.2,0.2v3.5c0,0.1-0.1,0.2-0.2,0.2h0c-0.1,0-0.2-0.1-0.2-0.1l-2.6-3.1v3c0,0.1-0.1,0.2-0.2,0.2
			c-0.1,0-0.2-0.1-0.2-0.2V90z"/>
		<path class="st0" d="M151.8,93.4l1.7-3.4c0.1-0.1,0.1-0.2,0.3-0.2h0c0.1,0,0.2,0.1,0.3,0.2l1.7,3.4c0,0,0,0.1,0,0.1
			c0,0.1-0.1,0.2-0.2,0.2c-0.1,0-0.2-0.1-0.2-0.2l-0.4-0.9h-2.3l-0.4,0.9c0,0.1-0.1,0.1-0.2,0.1c-0.1,0-0.2-0.1-0.2-0.2
			C151.8,93.5,151.8,93.5,151.8,93.4z M154.8,92.3l-1-2l-1,2H154.8z"/>
		<path class="st0" d="M163.6,90.1c0-0.1,0.1-0.2,0.2-0.2h1.2c1.3,0,2.2,0.8,2.2,1.9v0c0,1.1-0.9,1.9-2.2,1.9h-1.2
			c-0.1,0-0.2-0.1-0.2-0.2V90.1z M165,93.3c1.1,0,1.7-0.7,1.7-1.5v0c0-0.9-0.7-1.5-1.7-1.5h-1v3.1H165z"/>
		<path class="st0" d="M170.8,93.5v-3.4c0-0.1,0.1-0.2,0.2-0.2h2.6c0.1,0,0.2,0.1,0.2,0.2c0,0.1-0.1,0.2-0.2,0.2h-2.4v1.3h2.1
			c0.1,0,0.2,0.1,0.2,0.2c0,0.1-0.1,0.2-0.2,0.2h-2.1v1.4h2.4c0.1,0,0.2,0.1,0.2,0.2s-0.1,0.2-0.2,0.2H171
			C170.9,93.7,170.8,93.6,170.8,93.5z"/>
		<path class="st0" d="M181.4,91.8L181.4,91.8c0-1.1,0.8-2,2.1-2c0.6,0,1,0.2,1.4,0.4c0.1,0,0.1,0.1,0.1,0.2c0,0.1-0.1,0.2-0.2,0.2
			c-0.1,0-0.1,0-0.2-0.1c-0.3-0.2-0.6-0.4-1.2-0.4c-0.9,0-1.6,0.7-1.6,1.6v0c0,0.9,0.6,1.6,1.7,1.6c0.5,0,0.9-0.2,1.2-0.4v-1h-1.1
			c-0.1,0-0.2-0.1-0.2-0.2c0-0.1,0.1-0.2,0.2-0.2h1.4c0.1,0,0.2,0.1,0.2,0.2V93c0,0.1-0.1,0.2-0.2,0.3c-0.4,0.3-0.9,0.5-1.5,0.5
			C182.3,93.8,181.4,92.9,181.4,91.8z"/>
		<path class="st0" d="M188.8,92.1V90c0-0.1,0.1-0.2,0.2-0.2c0.1,0,0.2,0.1,0.2,0.2v2c0,0.8,0.5,1.3,1.3,1.3c0.8,0,1.3-0.4,1.3-1.3
			V90c0-0.1,0.1-0.2,0.2-0.2c0.1,0,0.2,0.1,0.2,0.2v2c0,1.1-0.7,1.7-1.8,1.7C189.5,93.8,188.8,93.2,188.8,92.1z"/>
		<path class="st0" d="M195.5,93.4l1.7-3.4c0.1-0.1,0.1-0.2,0.3-0.2h0c0.1,0,0.2,0.1,0.3,0.2l1.7,3.4c0,0,0,0.1,0,0.1
			c0,0.1-0.1,0.2-0.2,0.2c-0.1,0-0.2-0.1-0.2-0.2l-0.4-0.9h-2.3l-0.4,0.9c0,0.1-0.1,0.1-0.2,0.1c-0.1,0-0.2-0.1-0.2-0.2
			C195.5,93.5,195.5,93.5,195.5,93.4z M198.5,92.3l-1-2l-1,2H198.5z"/>
		<path class="st0" d="M203,90.1c0-0.1,0.1-0.2,0.2-0.2h1.2c1.3,0,2.2,0.8,2.2,1.9v0c0,1.1-0.9,1.9-2.2,1.9h-1.2
			c-0.1,0-0.2-0.1-0.2-0.2V90.1z M204.5,93.3c1.1,0,1.7-0.7,1.7-1.5v0c0-0.9-0.7-1.5-1.7-1.5h-1v3.1H204.5z"/>
		<path class="st0" d="M209.7,93.4l1.7-3.4c0.1-0.1,0.1-0.2,0.3-0.2h0c0.1,0,0.2,0.1,0.3,0.2l1.7,3.4c0,0,0,0.1,0,0.1
			c0,0.1-0.1,0.2-0.2,0.2c-0.1,0-0.2-0.1-0.2-0.2l-0.4-0.9h-2.3l-0.4,0.9c0,0.1-0.1,0.1-0.2,0.1c-0.1,0-0.2-0.1-0.2-0.2
			C209.7,93.5,209.7,93.5,209.7,93.4z M212.7,92.3l-1-2l-1,2H212.7z"/>
		<path class="st0" d="M217.2,90c0-0.1,0.1-0.2,0.2-0.2c0.1,0,0.2,0.1,0.2,0.2v3.3h2.2c0.1,0,0.2,0.1,0.2,0.2s-0.1,0.2-0.2,0.2h-2.4
			c-0.1,0-0.2-0.1-0.2-0.2V90z"/>
		<path class="st0" d="M223.2,93.4l1.7-3.4c0.1-0.1,0.1-0.2,0.3-0.2h0c0.1,0,0.2,0.1,0.3,0.2l1.7,3.4c0,0,0,0.1,0,0.1
			c0,0.1-0.1,0.2-0.2,0.2c-0.1,0-0.2-0.1-0.2-0.2l-0.4-0.9H224l-0.4,0.9c0,0.1-0.1,0.1-0.2,0.1c-0.1,0-0.2-0.1-0.2-0.2
			C223.1,93.5,223.1,93.5,223.2,93.4z M226.1,92.3l-1-2l-1,2H226.1z"/>
		<path class="st0" d="M230.3,93.2c0,0-0.1-0.1-0.1-0.1c0-0.1,0.1-0.2,0.2-0.2c0.1,0,0.1,0,0.2,0.1c0.2,0.3,0.5,0.4,0.9,0.4
			c0.5,0,0.8-0.3,0.8-0.9V90c0-0.1,0.1-0.2,0.2-0.2s0.2,0.1,0.2,0.2v2.4c0,0.5-0.1,0.8-0.4,1c-0.2,0.2-0.6,0.3-0.9,0.3
			C231,93.8,230.6,93.5,230.3,93.2z"/>
		<path class="st0" d="M236.1,93.4l1.7-3.4c0.1-0.1,0.1-0.2,0.3-0.2h0c0.1,0,0.2,0.1,0.3,0.2l1.7,3.4c0,0,0,0.1,0,0.1
			c0,0.1-0.1,0.2-0.2,0.2c-0.1,0-0.2-0.1-0.2-0.2l-0.4-0.9h-2.3l-0.4,0.9c0,0.1-0.1,0.1-0.2,0.1c-0.1,0-0.2-0.1-0.2-0.2
			C236,93.5,236.1,93.5,236.1,93.4z M239,92.3l-1-2l-1,2H239z"/>
		<path class="st0" d="M243.6,90.1c0-0.1,0.1-0.2,0.2-0.2h1.6c0.5,0,0.9,0.1,1.2,0.4c0.2,0.2,0.3,0.5,0.3,0.8v0c0,0.6-0.5,1-1.1,1.1
			l1,1.2c0,0.1,0.1,0.1,0.1,0.2c0,0.1-0.1,0.2-0.2,0.2c-0.1,0-0.2,0-0.2-0.1l-1.2-1.4H244v1.3c0,0.1-0.1,0.2-0.2,0.2
			c-0.1,0-0.2-0.1-0.2-0.2V90.1z M245.3,91.8c0.6,0,1.1-0.3,1.1-0.8v0c0-0.5-0.4-0.8-1.1-0.8H244v1.6H245.3z"/>
		<path class="st0" d="M250.1,93.4l1.7-3.4c0.1-0.1,0.1-0.2,0.3-0.2h0c0.1,0,0.2,0.1,0.3,0.2l1.7,3.4c0,0,0,0.1,0,0.1
			c0,0.1-0.1,0.2-0.2,0.2c-0.1,0-0.2-0.1-0.2-0.2l-0.4-0.9H251l-0.4,0.9c0,0.1-0.1,0.1-0.2,0.1c-0.1,0-0.2-0.1-0.2-0.2
			C250.1,93.5,250.1,93.5,250.1,93.4z M253.1,92.3l-1-2l-1,2H253.1z"/>
		<g>
			<path class="st0" d="M18.2,89.8H17c-0.1,0-0.3,0.1-0.3,0.3v3.5c0,0.1,0.1,0.3,0.3,0.3h1.1c1.2,0,2.1-0.8,2.1-2v0
				C20.3,90.6,19.4,89.8,18.2,89.8z M18.2,93.3h-0.9v-3h0.9c0.9,0,1.6,0.6,1.6,1.5v0C19.8,92.7,19.1,93.3,18.2,93.3z"/>
			<path class="st0" d="M26.7,93.3h-2.2V92h1.9c0.1,0,0.2-0.1,0.2-0.2c0-0.1-0.1-0.2-0.2-0.2h-1.9v-1.3h2.2c0.1,0,0.2-0.1,0.2-0.2
				c0-0.1-0.1-0.2-0.2-0.2h-2.4c-0.1,0-0.3,0.1-0.3,0.3v3.5c0,0.1,0.1,0.3,0.3,0.3h2.5c0.1,0,0.2-0.1,0.2-0.2
				C27,93.4,26.8,93.3,26.7,93.3z"/>
			<path class="st0" d="M33.1,93.3h-2V90c0-0.1-0.1-0.3-0.3-0.3c-0.1,0-0.3,0.1-0.3,0.3v3.5c0,0.1,0.1,0.3,0.3,0.3h2.3
				c0.1,0,0.2-0.1,0.2-0.2C33.3,93.4,33.2,93.3,33.1,93.3z"/>
		</g>
	</g>
	<g>
		<path class="st0" d="M5.6,69.3c0-0.2,0.2-0.4,0.4-0.4c0.2,0,0.4,0.2,0.4,0.4v6.9c0,0.2-0.2,0.4-0.4,0.4c-0.2,0-0.4-0.2-0.4-0.4
			V69.3z"/>
		<path class="st0" d="M8.6,71.3c0-0.2,0.2-0.4,0.4-0.4c0.2,0,0.4,0.2,0.4,0.4V72c0.4-0.6,1-1.1,1.9-1.1c1.4,0,2.2,0.9,2.2,2.3v3.2
			c0,0.2-0.2,0.4-0.4,0.4c-0.2,0-0.4-0.2-0.4-0.4v-2.9c0-1.1-0.6-1.7-1.6-1.7c-1,0-1.7,0.7-1.7,1.8v2.9c0,0.2-0.2,0.4-0.4,0.4
			c-0.2,0-0.4-0.2-0.4-0.4V71.3z"/>
		<path class="st0" d="M15,76c-0.1-0.1-0.2-0.2-0.2-0.3c0-0.2,0.2-0.4,0.4-0.4c0.1,0,0.2,0,0.2,0.1c0.6,0.4,1.2,0.6,1.8,0.6
			c0.7,0,1.2-0.4,1.2-0.9v0c0-0.6-0.7-0.8-1.4-1c-0.9-0.3-1.9-0.6-1.9-1.6v0c0-1,0.8-1.6,1.9-1.6c0.6,0,1.3,0.2,1.8,0.5
			c0.1,0.1,0.2,0.2,0.2,0.4c0,0.2-0.2,0.4-0.4,0.4c-0.1,0-0.1,0-0.2,0c-0.5-0.3-1-0.4-1.5-0.4c-0.7,0-1.1,0.4-1.1,0.8v0
			c0,0.5,0.7,0.7,1.5,1c0.9,0.3,1.8,0.6,1.8,1.6v0c0,1.1-0.9,1.7-2,1.7C16.5,76.8,15.7,76.5,15,76z"/>
		<path class="st0" d="M21,75.1v-3.4h-0.5c-0.2,0-0.4-0.2-0.4-0.4c0-0.2,0.2-0.4,0.4-0.4H21v-1.3c0-0.2,0.2-0.4,0.4-0.4
			c0.2,0,0.4,0.2,0.4,0.4V71h1.5c0.2,0,0.4,0.2,0.4,0.4c0,0.2-0.2,0.4-0.4,0.4h-1.5V75c0,0.7,0.4,0.9,1,0.9c0.3,0,0.5-0.1,0.5-0.1
			c0.2,0,0.4,0.2,0.4,0.4c0,0.2-0.1,0.3-0.2,0.3c-0.2,0.1-0.5,0.2-0.8,0.2C21.7,76.8,21,76.3,21,75.1z"/>
		<path class="st0" d="M25.2,69.2c0-0.3,0.2-0.5,0.5-0.5c0.3,0,0.5,0.2,0.5,0.5v0.1c0,0.3-0.2,0.5-0.5,0.5c-0.3,0-0.5-0.2-0.5-0.5
			V69.2z M25.2,71.3c0-0.2,0.2-0.4,0.4-0.4c0.2,0,0.4,0.2,0.4,0.4v4.9c0,0.2-0.2,0.4-0.4,0.4s-0.4-0.2-0.4-0.4V71.3z"/>
		<path class="st0" d="M28.3,75.1v-3.4h-0.5c-0.2,0-0.4-0.2-0.4-0.4c0-0.2,0.2-0.4,0.4-0.4h0.5v-1.3c0-0.2,0.2-0.4,0.4-0.4
			c0.2,0,0.4,0.2,0.4,0.4V71h1.5c0.2,0,0.4,0.2,0.4,0.4c0,0.2-0.2,0.4-0.4,0.4h-1.5V75c0,0.7,0.4,0.9,1,0.9c0.3,0,0.5-0.1,0.5-0.1
			c0.2,0,0.4,0.2,0.4,0.4c0,0.2-0.1,0.3-0.2,0.3c-0.2,0.1-0.5,0.2-0.8,0.2C29,76.8,28.3,76.3,28.3,75.1z"/>
		<path class="st0" d="M37.4,76.3c0,0.2-0.2,0.4-0.4,0.4c-0.2,0-0.4-0.2-0.4-0.4v-0.6c-0.4,0.6-1,1.1-1.9,1.1
			c-1.4,0-2.2-0.9-2.2-2.3v-3.2c0-0.2,0.2-0.4,0.4-0.4c0.2,0,0.4,0.2,0.4,0.4v2.9c0,1.1,0.6,1.7,1.6,1.7c1,0,1.7-0.7,1.7-1.8v-2.9
			c0-0.2,0.2-0.4,0.4-0.4c0.2,0,0.4,0.2,0.4,0.4V76.3z"/>
		<path class="st0" d="M39.6,75.1v-3.4h-0.5c-0.2,0-0.4-0.2-0.4-0.4c0-0.2,0.2-0.4,0.4-0.4h0.5v-1.3c0-0.2,0.2-0.4,0.4-0.4
			c0.2,0,0.4,0.2,0.4,0.4V71h1.5c0.2,0,0.4,0.2,0.4,0.4c0,0.2-0.2,0.4-0.4,0.4h-1.5V75c0,0.7,0.4,0.9,1,0.9c0.3,0,0.5-0.1,0.5-0.1
			c0.2,0,0.4,0.2,0.4,0.4c0,0.2-0.1,0.3-0.2,0.3c-0.2,0.1-0.5,0.2-0.8,0.2C40.3,76.8,39.6,76.3,39.6,75.1z"/>
		<path class="st0" d="M43.2,73.8L43.2,73.8c0-1.6,1.3-3,3-3c1.7,0,3,1.3,3,2.9v0c0,1.6-1.3,3-3,3C44.4,76.8,43.2,75.4,43.2,73.8z
			 M48.3,73.8L48.3,73.8c0-1.2-0.9-2.2-2.1-2.2c-1.2,0-2.1,1-2.1,2.2v0c0,1.2,0.9,2.2,2.1,2.2C47.4,76,48.3,75,48.3,73.8z"/>
		<path class="st0" d="M59.4,76.3c0,0.2-0.2,0.4-0.4,0.4c-0.2,0-0.4-0.2-0.4-0.4v-0.8c-0.5,0.7-1.1,1.3-2.2,1.3
			c-1.4,0-2.7-1.1-2.7-2.9v0c0-1.9,1.4-3,2.7-3c1.1,0,1.7,0.6,2.2,1.2V69c0-0.2,0.2-0.4,0.4-0.4c0.2,0,0.4,0.2,0.4,0.4V76.3z
			 M54.5,73.8L54.5,73.8c0,1.4,0.9,2.2,2,2.2c1.1,0,2.1-0.9,2.1-2.2v0c0-1.3-1-2.2-2.1-2.2C55.4,71.6,54.5,72.4,54.5,73.8z"/>
		<path class="st0" d="M63.7,76.8c-1.6,0-2.8-1.2-2.8-3v0c0-1.6,1.2-3,2.7-3c1.7,0,2.6,1.4,2.6,2.9c0,0.2-0.2,0.4-0.4,0.4h-4.1
			c0.1,1.2,1,1.9,2,1.9c0.7,0,1.2-0.3,1.6-0.7c0.1-0.1,0.1-0.1,0.2-0.1c0.2,0,0.4,0.2,0.4,0.4c0,0.1,0,0.2-0.1,0.3
			C65.4,76.4,64.7,76.8,63.7,76.8z M65.4,73.5c-0.1-1-0.7-1.9-1.8-1.9c-1,0-1.7,0.8-1.8,1.9H65.4z"/>
		<path class="st0" d="M71,69.8c0-0.5,0.4-0.8,0.8-0.8h2.3c1.8,0,2.9,1.1,2.9,2.7v0c0,1.8-1.4,2.7-3.1,2.7h-1.3v1.5
			c0,0.5-0.4,0.8-0.8,0.8c-0.5,0-0.8-0.4-0.8-0.8V69.8z M74.1,72.8c0.8,0,1.3-0.5,1.3-1.2v0c0-0.8-0.5-1.2-1.4-1.2h-1.3v2.4H74.1z"
			/>
		<path class="st0" d="M78.3,69.4c0-0.5,0.4-0.8,0.8-0.8c0.5,0,0.8,0.4,0.8,0.8v6.5c0,0.5-0.4,0.8-0.8,0.8c-0.5,0-0.8-0.4-0.8-0.8
			V69.4z"/>
		<path class="st0" d="M81.2,75L81.2,75c0-1.3,1-1.9,2.4-1.9c0.6,0,1,0.1,1.4,0.2v-0.1c0-0.7-0.4-1.1-1.3-1.1
			c-0.5,0-0.8,0.1-1.2,0.2c-0.1,0-0.2,0-0.2,0c-0.4,0-0.7-0.3-0.7-0.7c0-0.3,0.2-0.5,0.5-0.6c0.5-0.2,1.1-0.3,1.9-0.3
			c0.9,0,1.6,0.2,2,0.7c0.4,0.4,0.6,1.1,0.6,1.9v2.7c0,0.5-0.4,0.8-0.8,0.8c-0.5,0-0.8-0.3-0.8-0.7v0c-0.4,0.5-1,0.7-1.8,0.7
			C82.1,76.8,81.2,76.1,81.2,75z M85,74.6v-0.3c-0.3-0.1-0.7-0.2-1.1-0.2c-0.7,0-1.2,0.3-1.2,0.8v0c0,0.5,0.4,0.7,0.9,0.7
			C84.5,75.6,85,75.2,85,74.6z"/>
		<path class="st0" d="M88.1,71.5c0-0.5,0.4-0.8,0.8-0.8c0.5,0,0.8,0.4,0.8,0.8v0.1c0.4-0.5,0.9-0.9,1.7-0.9c1.3,0,2,0.8,2,2.2v3
			c0,0.5-0.4,0.8-0.8,0.8c-0.5,0-0.8-0.4-0.8-0.8v-2.5c0-0.8-0.4-1.2-1-1.2c-0.6,0-1,0.4-1,1.2v2.5c0,0.5-0.4,0.8-0.8,0.8
			c-0.5,0-0.8-0.4-0.8-0.8V71.5z"/>
		<path class="st0" d="M97.7,76.8c-1.8,0-3.1-1.2-3.1-3v0c0-1.7,1.2-3.1,2.9-3.1c2,0,2.8,1.6,2.8,2.8c0,0.5-0.3,0.8-0.8,0.8h-3.3
			c0.2,0.8,0.7,1.2,1.4,1.2c0.5,0,0.8-0.1,1.2-0.4c0.1-0.1,0.2-0.1,0.4-0.1c0.4,0,0.6,0.3,0.6,0.7c0,0.2-0.1,0.4-0.2,0.5
			C99.2,76.5,98.6,76.8,97.7,76.8z M98.8,73.2c-0.1-0.7-0.5-1.3-1.2-1.3c-0.7,0-1.1,0.5-1.3,1.3H98.8z"/>
		<path class="st0" d="M101.3,75L101.3,75c0-1.3,1-1.9,2.4-1.9c0.6,0,1,0.1,1.4,0.2v-0.1c0-0.7-0.4-1.1-1.3-1.1
			c-0.5,0-0.8,0.1-1.2,0.2c-0.1,0-0.2,0-0.2,0c-0.4,0-0.7-0.3-0.7-0.7c0-0.3,0.2-0.5,0.5-0.6c0.5-0.2,1.1-0.3,1.9-0.3
			c0.9,0,1.6,0.2,2,0.7c0.4,0.4,0.6,1.1,0.6,1.9v2.7c0,0.5-0.4,0.8-0.8,0.8c-0.5,0-0.8-0.3-0.8-0.7v0c-0.4,0.5-1,0.7-1.8,0.7
			C102.2,76.8,101.3,76.1,101.3,75z M105.1,74.6v-0.3c-0.3-0.1-0.7-0.2-1.1-0.2c-0.7,0-1.2,0.3-1.2,0.8v0c0,0.5,0.4,0.7,0.9,0.7
			C104.6,75.6,105.1,75.2,105.1,74.6z"/>
		<path class="st0" d="M107.9,73.7L107.9,73.7c0-1.7,1.3-3.1,3.1-3.1c0.9,0,1.5,0.2,2,0.7c0.1,0.1,0.3,0.3,0.3,0.6
			c0,0.4-0.3,0.7-0.8,0.7c-0.2,0-0.4-0.1-0.5-0.2c-0.3-0.2-0.6-0.4-1-0.4c-0.8,0-1.4,0.7-1.4,1.6v0c0,0.9,0.6,1.6,1.5,1.6
			c0.4,0,0.8-0.2,1.1-0.4c0.1-0.1,0.3-0.2,0.5-0.2c0.4,0,0.7,0.3,0.7,0.7c0,0.2-0.1,0.4-0.2,0.5c-0.5,0.5-1.1,0.8-2.1,0.8
			C109.2,76.8,107.9,75.4,107.9,73.7z"/>
		<path class="st0" d="M114.4,69.3c0-0.5,0.4-0.8,0.9-0.8c0.5,0,0.9,0.3,0.9,0.8v0c0,0.5-0.4,0.8-0.9,0.8
			C114.8,70.2,114.4,69.9,114.4,69.3L114.4,69.3z M114.5,71.5c0-0.5,0.4-0.8,0.8-0.8c0.5,0,0.8,0.4,0.8,0.8v4.4
			c0,0.5-0.4,0.8-0.8,0.8c-0.5,0-0.8-0.4-0.8-0.8V71.5z"/>
		<path class="st0" d="M117.5,73.7L117.5,73.7c0-1.7,1.4-3.1,3.2-3.1c1.8,0,3.2,1.4,3.2,3v0c0,1.7-1.4,3.1-3.2,3.1
			C118.8,76.8,117.5,75.4,117.5,73.7z M122.2,73.7L122.2,73.7c0-0.9-0.6-1.6-1.6-1.6c-1,0-1.5,0.7-1.5,1.6v0c0,0.9,0.6,1.6,1.6,1.6
			C121.6,75.3,122.2,74.6,122.2,73.7z M120.2,69.9c0-0.1,0.1-0.2,0.1-0.3l0.6-0.9c0.1-0.2,0.4-0.4,0.6-0.4c0.4,0,0.9,0.3,0.9,0.5
			c0,0.2-0.1,0.3-0.2,0.4l-0.7,0.6c-0.3,0.3-0.6,0.4-1,0.4C120.4,70.2,120.2,70.1,120.2,69.9z"/>
		<path class="st0" d="M125.1,71.5c0-0.5,0.4-0.8,0.8-0.8c0.5,0,0.8,0.4,0.8,0.8v0.1c0.4-0.5,0.9-0.9,1.7-0.9c1.3,0,2,0.8,2,2.2v3
			c0,0.5-0.4,0.8-0.8,0.8c-0.5,0-0.8-0.4-0.8-0.8v-2.5c0-0.8-0.4-1.2-1-1.2c-0.6,0-1,0.4-1,1.2v2.5c0,0.5-0.4,0.8-0.8,0.8
			c-0.5,0-0.8-0.4-0.8-0.8V71.5z"/>
		<path class="st0" d="M135.5,78.3c-0.2-0.1-0.5-0.3-0.5-0.7c0-0.4,0.3-0.7,0.7-0.7c0.1,0,0.2,0,0.3,0c0.1,0,0.2,0.1,0.4,0.1
			c0.3,0,0.4-0.1,0.6-0.4l0.1-0.1l-2-4.7c0-0.1-0.1-0.3-0.1-0.4c0-0.5,0.4-0.8,0.8-0.8c0.4,0,0.7,0.2,0.8,0.6l1.3,3.4l1.2-3.4
			c0.1-0.4,0.4-0.6,0.8-0.6c0.4,0,0.8,0.3,0.8,0.8c0,0.1,0,0.3-0.1,0.4l-2.1,4.9c-0.5,1.2-1,1.7-2,1.7
			C136.1,78.4,135.8,78.4,135.5,78.3z"/>
		<path class="st0" d="M144.8,72.8L144.8,72.8c0-2.2,1.7-4,4-4c1.2,0,1.9,0.3,2.6,0.7c0.2,0.1,0.4,0.4,0.4,0.7
			c0,0.5-0.4,0.8-0.8,0.8c-0.2,0-0.4-0.1-0.5-0.2c-0.5-0.3-1-0.5-1.7-0.5c-1.2,0-2.2,1.1-2.2,2.4v0c0,1.4,1,2.4,2.3,2.4
			c0.6,0,1.2-0.2,1.6-0.5v-1.1h-1.1c-0.4,0-0.7-0.3-0.7-0.7c0-0.4,0.3-0.7,0.7-0.7h1.9c0.5,0,0.8,0.4,0.8,0.8v1.9
			c0,0.5-0.2,0.8-0.6,1.1c-0.6,0.4-1.5,0.8-2.7,0.8C146.5,76.8,144.8,75.1,144.8,72.8z"/>
		<path class="st0" d="M156.4,76.8c-1.8,0-3.1-1.2-3.1-3v0c0-1.7,1.2-3.1,2.9-3.1c2,0,2.8,1.6,2.8,2.8c0,0.5-0.3,0.8-0.8,0.8H155
			c0.2,0.8,0.7,1.2,1.4,1.2c0.5,0,0.8-0.1,1.2-0.4c0.1-0.1,0.2-0.1,0.4-0.1c0.4,0,0.6,0.3,0.6,0.7c0,0.2-0.1,0.4-0.2,0.5
			C157.9,76.5,157.2,76.8,156.4,76.8z M157.5,73.2c-0.1-0.7-0.5-1.3-1.2-1.3c-0.7,0-1.1,0.5-1.3,1.3H157.5z"/>
		<path class="st0" d="M160.2,76.1c-0.2-0.1-0.3-0.3-0.3-0.6c0-0.4,0.3-0.7,0.7-0.7c0.1,0,0.2,0,0.3,0.1c0.6,0.4,1.1,0.5,1.6,0.5
			c0.5,0,0.7-0.2,0.7-0.4v0c0-0.4-0.6-0.5-1.2-0.7c-0.8-0.2-1.8-0.6-1.8-1.8v0c0-1.2,1-1.9,2.2-1.9c0.6,0,1.3,0.2,1.8,0.5
			c0.2,0.1,0.4,0.3,0.4,0.6c0,0.4-0.3,0.7-0.7,0.7c-0.1,0-0.2,0-0.3-0.1c-0.5-0.2-0.9-0.4-1.3-0.4c-0.4,0-0.6,0.2-0.6,0.4v0
			c0,0.3,0.6,0.5,1.2,0.7c0.8,0.3,1.8,0.7,1.8,1.7v0c0,1.3-1,1.9-2.3,1.9C161.7,76.8,160.9,76.6,160.2,76.1z"/>
		<path class="st0" d="M166,75v-2.8H166c-0.4,0-0.7-0.3-0.7-0.7s0.3-0.7,0.7-0.7h0.1V70c0-0.5,0.4-0.8,0.8-0.8
			c0.5,0,0.8,0.4,0.8,0.8v0.7h0.7c0.4,0,0.7,0.3,0.7,0.7s-0.3,0.7-0.7,0.7h-0.7v2.5c0,0.4,0.2,0.6,0.5,0.6c0.1,0,0.2,0,0.2,0
			c0.4,0,0.7,0.3,0.7,0.7c0,0.3-0.2,0.5-0.4,0.6c-0.3,0.1-0.6,0.2-1,0.2C166.7,76.8,166,76.3,166,75z"/>
		<path class="st0" d="M170.3,69.3c0-0.5,0.4-0.8,0.9-0.8c0.5,0,0.9,0.3,0.9,0.8v0c0,0.5-0.4,0.8-0.9,0.8
			C170.7,70.2,170.3,69.9,170.3,69.3L170.3,69.3z M170.4,71.5c0-0.5,0.4-0.8,0.8-0.8c0.5,0,0.8,0.4,0.8,0.8v4.4
			c0,0.5-0.4,0.8-0.8,0.8c-0.5,0-0.8-0.4-0.8-0.8V71.5z"/>
		<path class="st0" d="M173.3,73.7L173.3,73.7c0-1.7,1.4-3.1,3.2-3.1c1.8,0,3.2,1.4,3.2,3v0c0,1.7-1.4,3.1-3.2,3.1
			C174.7,76.8,173.3,75.4,173.3,73.7z M178.1,73.7L178.1,73.7c0-0.9-0.6-1.6-1.6-1.6c-1,0-1.5,0.7-1.5,1.6v0c0,0.9,0.6,1.6,1.6,1.6
			C177.5,75.3,178.1,74.6,178.1,73.7z M176.1,69.9c0-0.1,0.1-0.2,0.1-0.3l0.6-0.9c0.1-0.2,0.4-0.4,0.6-0.4c0.4,0,0.9,0.3,0.9,0.5
			c0,0.2-0.1,0.3-0.2,0.4l-0.7,0.6c-0.3,0.3-0.6,0.4-1,0.4C176.3,70.2,176.1,70.1,176.1,69.9z"/>
		<path class="st0" d="M180.9,71.5c0-0.5,0.4-0.8,0.8-0.8c0.5,0,0.8,0.4,0.8,0.8v0.1c0.4-0.5,0.9-0.9,1.7-0.9c1.3,0,2,0.8,2,2.2v3
			c0,0.5-0.4,0.8-0.8,0.8c-0.5,0-0.8-0.4-0.8-0.8v-2.5c0-0.8-0.4-1.2-1-1.2s-1,0.4-1,1.2v2.5c0,0.5-0.4,0.8-0.8,0.8
			c-0.5,0-0.8-0.4-0.8-0.8V71.5z"/>
		<path class="st0" d="M196.7,76.3c0,0.2-0.2,0.4-0.4,0.4c-0.2,0-0.4-0.2-0.4-0.4v-0.8c-0.5,0.7-1.1,1.3-2.2,1.3
			c-1.4,0-2.7-1.1-2.7-2.9v0c0-1.9,1.4-3,2.7-3c1.1,0,1.7,0.6,2.2,1.2V69c0-0.2,0.2-0.4,0.4-0.4s0.4,0.2,0.4,0.4V76.3z M191.8,73.8
			L191.8,73.8c0,1.4,0.9,2.2,2,2.2c1.1,0,2.1-0.9,2.1-2.2v0c0-1.3-1-2.2-2.1-2.2C192.7,71.6,191.8,72.4,191.8,73.8z"/>
		<path class="st0" d="M201.1,76.8c-1.6,0-2.8-1.2-2.8-3v0c0-1.6,1.2-3,2.7-3c1.7,0,2.6,1.4,2.6,2.9c0,0.2-0.2,0.4-0.4,0.4h-4.1
			c0.1,1.2,1,1.9,2,1.9c0.7,0,1.2-0.3,1.6-0.7c0.1-0.1,0.1-0.1,0.2-0.1c0.2,0,0.4,0.2,0.4,0.4c0,0.1,0,0.2-0.1,0.3
			C202.7,76.4,202,76.8,201.1,76.8z M202.8,73.5c-0.1-1-0.7-1.9-1.8-1.9c-1,0-1.7,0.8-1.8,1.9H202.8z"/>
		<path class="st0" d="M205.2,69c0-0.2,0.2-0.4,0.4-0.4c0.2,0,0.4,0.2,0.4,0.4v7.3c0,0.2-0.2,0.4-0.4,0.4s-0.4-0.2-0.4-0.4V69z"/>
		<path class="st0" d="M211.4,69.4c0-0.2,0.2-0.4,0.4-0.4h2.2c2.4,0,4.1,1.7,4.1,3.8v0c0,2.2-1.7,3.9-4.1,3.9h-2.2
			c-0.2,0-0.4-0.2-0.4-0.4V69.4z M214.1,75.9c1.9,0,3.2-1.3,3.2-3v0c0-1.7-1.2-3-3.2-3h-1.8v6.1H214.1z"/>
		<path class="st0" d="M222.4,76.8c-1.6,0-2.8-1.2-2.8-3v0c0-1.6,1.2-3,2.7-3c1.7,0,2.6,1.4,2.6,2.9c0,0.2-0.2,0.4-0.4,0.4h-4.1
			c0.1,1.2,1,1.9,2,1.9c0.7,0,1.2-0.3,1.6-0.7c0.1-0.1,0.1-0.1,0.2-0.1c0.2,0,0.4,0.2,0.4,0.4c0,0.1,0,0.2-0.1,0.3
			C224,76.4,223.4,76.8,222.4,76.8z M224.1,73.5c-0.1-1-0.7-1.9-1.8-1.9c-1,0-1.7,0.8-1.8,1.9H224.1z"/>
		<path class="st0" d="M226.1,76c-0.1-0.1-0.2-0.2-0.2-0.3c0-0.2,0.2-0.4,0.4-0.4c0.1,0,0.2,0,0.2,0.1c0.6,0.4,1.2,0.6,1.8,0.6
			c0.7,0,1.2-0.4,1.2-0.9v0c0-0.6-0.7-0.8-1.4-1c-0.9-0.3-1.9-0.6-1.9-1.6v0c0-1,0.8-1.6,1.9-1.6c0.6,0,1.3,0.2,1.8,0.5
			c0.1,0.1,0.2,0.2,0.2,0.4c0,0.2-0.2,0.4-0.4,0.4c-0.1,0-0.1,0-0.2,0c-0.5-0.3-1-0.4-1.5-0.4c-0.7,0-1.1,0.4-1.1,0.8v0
			c0,0.5,0.7,0.7,1.5,1c0.9,0.3,1.8,0.6,1.8,1.6v0c0,1.1-0.9,1.7-2,1.7C227.5,76.8,226.7,76.5,226.1,76z"/>
		<path class="st0" d="M231.5,75L231.5,75c0-1.2,1-1.9,2.4-1.9c0.7,0,1.2,0.1,1.7,0.2v-0.2c0-1-0.6-1.6-1.7-1.6
			c-0.6,0-1.1,0.1-1.5,0.3c-0.1,0-0.1,0-0.2,0c-0.2,0-0.4-0.2-0.4-0.4c0-0.2,0.1-0.3,0.2-0.4c0.6-0.2,1.1-0.4,1.9-0.4
			c0.8,0,1.4,0.2,1.8,0.6c0.4,0.4,0.6,0.9,0.6,1.7v3.1c0,0.2-0.2,0.4-0.4,0.4c-0.2,0-0.4-0.2-0.4-0.4v-0.5c-0.4,0.5-1.1,1-2.1,1
			C232.5,76.8,231.5,76.2,231.5,75z M235.7,74.6V74c-0.4-0.1-1-0.2-1.7-0.2c-1.1,0-1.7,0.5-1.7,1.2v0c0,0.7,0.7,1.1,1.4,1.1
			C234.8,76.1,235.7,75.5,235.7,74.6z"/>
		<path class="st0" d="M238.3,71.3c0-0.2,0.2-0.4,0.4-0.4c0.2,0,0.4,0.2,0.4,0.4v1.1c0.4-0.9,1.2-1.5,2-1.5c0.3,0,0.4,0.2,0.4,0.4
			c0,0.2-0.2,0.4-0.4,0.4c-1.1,0.1-2,1-2,2.6v1.9c0,0.2-0.2,0.4-0.4,0.4s-0.4-0.2-0.4-0.4V71.3z"/>
		<path class="st0" d="M242.7,71.3c0-0.2,0.2-0.4,0.4-0.4c0.2,0,0.4,0.2,0.4,0.4v1.1c0.4-0.9,1.2-1.5,2-1.5c0.3,0,0.4,0.2,0.4,0.4
			c0,0.2-0.2,0.4-0.4,0.4c-1.1,0.1-2,1-2,2.6v1.9c0,0.2-0.2,0.4-0.4,0.4s-0.4-0.2-0.4-0.4V71.3z"/>
		<path class="st0" d="M246.6,73.8L246.6,73.8c0-1.6,1.3-3,3-3c1.7,0,3,1.3,3,2.9v0c0,1.6-1.3,3-3,3
			C247.8,76.8,246.6,75.4,246.6,73.8z M251.6,73.8L251.6,73.8c0-1.2-0.9-2.2-2.1-2.2c-1.2,0-2.1,1-2.1,2.2v0c0,1.2,0.9,2.2,2.1,2.2
			C250.8,76,251.6,75,251.6,73.8z"/>
		<path class="st0" d="M254.1,69c0-0.2,0.2-0.4,0.4-0.4c0.2,0,0.4,0.2,0.4,0.4v7.3c0,0.2-0.2,0.4-0.4,0.4s-0.4-0.2-0.4-0.4V69z"/>
		<path class="st0" d="M257,69c0-0.2,0.2-0.4,0.4-0.4c0.2,0,0.4,0.2,0.4,0.4v7.3c0,0.2-0.2,0.4-0.4,0.4s-0.4-0.2-0.4-0.4V69z"/>
		<path class="st0" d="M259.5,73.8L259.5,73.8c0-1.6,1.3-3,3-3c1.7,0,3,1.3,3,2.9v0c0,1.6-1.3,3-3,3
			C260.7,76.8,259.5,75.4,259.5,73.8z M264.5,73.8L264.5,73.8c0-1.2-0.9-2.2-2.1-2.2c-1.2,0-2.1,1-2.1,2.2v0c0,1.2,0.9,2.2,2.1,2.2
			C263.7,76,264.5,75,264.5,73.8z"/>
	</g>
</g>
</svg>
